<?xml version="1.0" encoding="utf-8" ?>
<svg baseProfile="tiny" height="294px" version="1.2" width="1080px" xmlns="http://www.w3.org/2000/svg" xmlns:ev="http://www.w3.org/2001/xml-events" xmlns:xlink="http://www.w3.org/1999/xlink"><defs /><path d="M 714,129 L 713,130 L 711,130 L 710,131 L 708,131 L 707,132 L 706,132 L 699,139 L 699,140 L 698,141 L 698,142 L 697,143 L 697,145 L 696,146 L 696,149 L 695,150 L 695,166 L 696,167 L 696,170 L 697,171 L 697,173 L 698,174 L 698,175 L 700,177 L 700,178 L 704,182 L 705,182 L 707,184 L 708,184 L 709,185 L 711,185 L 712,186 L 729,186 L 730,185 L 732,185 L 733,184 L 734,184 L 734,176 L 733,177 L 731,177 L 730,178 L 727,178 L 726,179 L 716,179 L 715,178 L 713,178 L 712,177 L 711,177 L 707,173 L 707,172 L 706,171 L 706,170 L 705,169 L 705,167 L 704,166 L 704,150 L 705,149 L 705,147 L 706,146 L 706,145 L 707,144 L 707,143 L 712,138 L 713,138 L 714,137 L 717,137 L 718,136 L 723,136 L 724,137 L 727,137 L 728,138 L 731,138 L 732,139 L 733,139 L 733,137 L 734,136 L 734,134 L 735,133 L 735,132 L 734,131 L 733,131 L 732,130 L 728,130 L 727,129 Z" fill="white" /><path d="M 655,129 L 654,130 L 652,130 L 651,131 L 650,131 L 649,132 L 648,132 L 641,139 L 641,140 L 640,141 L 640,142 L 639,143 L 639,145 L 638,146 L 638,148 L 637,149 L 637,167 L 638,168 L 638,170 L 639,171 L 639,173 L 640,174 L 640,175 L 643,178 L 643,179 L 645,181 L 646,181 L 648,183 L 649,183 L 650,184 L 651,184 L 652,185 L 654,185 L 655,186 L 673,186 L 674,185 L 677,185 L 678,184 L 680,184 L 681,183 L 681,175 L 680,176 L 679,176 L 678,177 L 675,177 L 674,178 L 671,178 L 670,179 L 659,179 L 658,178 L 656,178 L 655,177 L 654,177 L 648,171 L 648,170 L 647,169 L 647,167 L 646,166 L 646,162 L 645,161 L 645,160 L 646,159 L 684,159 L 684,151 L 683,150 L 683,145 L 682,144 L 682,142 L 681,141 L 681,140 L 680,139 L 680,138 L 674,132 L 673,132 L 672,131 L 671,131 L 670,130 L 668,130 L 667,129 Z" fill="white" /><path d="M 596,129 L 595,130 L 593,130 L 592,131 L 591,131 L 590,132 L 589,132 L 585,136 L 583,134 L 583,130 L 576,130 L 576,185 L 584,185 L 584,151 L 585,150 L 585,147 L 586,146 L 586,144 L 587,143 L 587,142 L 590,139 L 591,139 L 593,137 L 596,137 L 597,136 L 605,136 L 606,137 L 607,137 L 608,138 L 609,138 L 612,141 L 612,142 L 613,143 L 613,146 L 614,147 L 614,185 L 622,185 L 622,142 L 621,141 L 621,139 L 620,138 L 620,137 L 619,136 L 619,135 L 616,132 L 615,132 L 614,131 L 613,131 L 612,130 L 609,130 L 608,129 Z" fill="white" /><path d="M 533,129 L 532,130 L 529,130 L 528,131 L 527,131 L 525,133 L 524,133 L 521,136 L 520,135 L 520,134 L 519,133 L 519,130 L 512,130 L 512,185 L 520,185 L 520,153 L 521,152 L 521,147 L 522,146 L 522,145 L 523,144 L 523,143 L 528,138 L 529,138 L 530,137 L 532,137 L 533,136 L 541,136 L 542,137 L 544,137 L 548,141 L 548,142 L 549,143 L 549,144 L 550,145 L 550,185 L 558,185 L 558,141 L 557,140 L 557,138 L 556,137 L 556,136 L 552,132 L 551,132 L 550,131 L 549,131 L 548,130 L 546,130 L 545,129 Z" fill="white" /><path d="M 465,129 L 464,130 L 462,130 L 461,131 L 460,131 L 459,132 L 458,132 L 457,133 L 456,133 L 451,138 L 451,139 L 450,140 L 450,141 L 449,142 L 449,143 L 448,144 L 448,146 L 447,147 L 447,151 L 446,152 L 446,163 L 447,164 L 447,168 L 448,169 L 448,171 L 449,172 L 449,173 L 450,174 L 450,175 L 451,176 L 451,177 L 456,182 L 457,182 L 459,184 L 460,184 L 461,185 L 463,185 L 464,186 L 479,186 L 480,185 L 482,185 L 483,184 L 484,184 L 485,183 L 486,183 L 488,181 L 489,181 L 491,179 L 491,178 L 493,176 L 493,175 L 494,174 L 494,173 L 495,172 L 495,171 L 496,170 L 496,166 L 497,165 L 497,150 L 496,149 L 496,146 L 495,145 L 495,143 L 494,142 L 494,141 L 492,139 L 492,138 L 487,133 L 486,133 L 484,131 L 482,131 L 481,130 L 479,130 L 478,129 Z" fill="white" /><path d="M 289,129 L 289,131 L 290,132 L 290,134 L 291,135 L 291,136 L 292,137 L 292,139 L 293,140 L 293,142 L 294,143 L 294,144 L 295,145 L 295,147 L 296,148 L 296,150 L 297,151 L 297,152 L 298,153 L 298,155 L 299,156 L 299,157 L 300,158 L 300,160 L 301,161 L 301,163 L 302,164 L 302,165 L 303,166 L 303,168 L 304,169 L 304,171 L 305,172 L 305,173 L 306,174 L 306,176 L 307,177 L 307,178 L 308,179 L 308,181 L 309,182 L 309,184 L 310,185 L 326,185 L 327,184 L 327,182 L 328,181 L 328,180 L 329,179 L 329,177 L 330,176 L 330,175 L 331,174 L 331,172 L 332,171 L 332,169 L 333,168 L 333,167 L 334,166 L 334,164 L 335,163 L 335,161 L 336,160 L 336,159 L 337,158 L 337,156 L 338,155 L 338,154 L 339,153 L 339,151 L 340,150 L 340,148 L 341,147 L 341,146 L 342,145 L 342,143 L 343,142 L 343,140 L 344,139 L 344,138 L 345,137 L 345,135 L 346,134 L 346,133 L 347,132 L 347,130 L 348,129 L 331,129 L 331,131 L 330,132 L 330,134 L 329,135 L 329,137 L 328,138 L 328,140 L 327,141 L 327,143 L 326,144 L 326,146 L 325,147 L 325,149 L 324,150 L 324,152 L 323,153 L 323,155 L 322,156 L 322,157 L 321,158 L 321,160 L 320,161 L 320,164 L 319,165 L 319,168 L 318,169 L 317,168 L 317,164 L 316,163 L 316,161 L 315,160 L 315,158 L 314,157 L 314,155 L 313,154 L 313,152 L 312,151 L 312,149 L 311,148 L 311,146 L 310,145 L 310,143 L 309,142 L 309,140 L 308,139 L 308,137 L 307,136 L 307,134 L 306,133 L 306,131 L 305,130 L 305,129 Z" fill="white" /><path d="M 251,128 L 250,129 L 248,129 L 247,130 L 246,130 L 245,131 L 244,131 L 243,132 L 242,132 L 237,137 L 237,138 L 235,140 L 235,141 L 234,142 L 234,144 L 233,145 L 233,148 L 232,149 L 232,166 L 233,167 L 233,169 L 234,170 L 234,172 L 235,173 L 235,174 L 237,176 L 237,177 L 241,181 L 242,181 L 244,183 L 245,183 L 246,184 L 247,184 L 248,185 L 251,185 L 252,186 L 260,186 L 261,187 L 262,186 L 272,186 L 273,185 L 276,185 L 277,184 L 278,184 L 279,183 L 281,183 L 281,171 L 279,171 L 278,172 L 276,172 L 275,173 L 273,173 L 272,174 L 268,174 L 267,175 L 258,175 L 257,174 L 255,174 L 253,172 L 252,172 L 251,171 L 251,170 L 249,168 L 249,167 L 248,166 L 248,163 L 247,162 L 248,161 L 284,161 L 284,148 L 283,147 L 283,144 L 282,143 L 282,141 L 281,140 L 281,139 L 280,138 L 280,137 L 275,132 L 274,132 L 272,130 L 270,130 L 269,129 L 267,129 L 266,128 Z" fill="white" /><path d="M 752,117 L 751,118 L 751,120 L 750,121 L 750,123 L 749,124 L 749,127 L 746,130 L 744,130 L 743,131 L 742,131 L 741,132 L 740,132 L 740,136 L 747,136 L 748,137 L 748,174 L 749,175 L 749,178 L 750,179 L 750,180 L 752,182 L 752,183 L 753,183 L 755,185 L 757,185 L 758,186 L 771,186 L 772,185 L 773,185 L 773,179 L 768,179 L 767,180 L 765,180 L 764,179 L 762,179 L 761,178 L 760,178 L 758,176 L 758,175 L 757,174 L 757,170 L 756,169 L 756,137 L 757,136 L 773,136 L 773,130 L 757,130 L 756,129 L 756,117 Z" fill="white" /><path d="M 159,111 L 159,185 L 192,185 L 193,184 L 196,184 L 197,183 L 199,183 L 200,182 L 202,182 L 203,181 L 204,181 L 206,179 L 207,179 L 210,176 L 211,176 L 213,174 L 213,173 L 215,171 L 215,170 L 217,168 L 217,167 L 218,166 L 218,164 L 219,163 L 219,161 L 220,160 L 220,155 L 221,154 L 221,142 L 220,141 L 220,136 L 219,135 L 219,133 L 218,132 L 218,130 L 217,129 L 217,128 L 215,126 L 215,125 L 208,118 L 207,118 L 205,116 L 204,116 L 203,115 L 202,115 L 201,114 L 199,114 L 198,113 L 195,113 L 194,112 L 189,112 L 188,111 Z" fill="white" /><path d="M 412,110 L 411,111 L 406,111 L 405,112 L 403,112 L 402,113 L 400,113 L 399,114 L 398,114 L 396,116 L 395,116 L 387,124 L 387,125 L 386,126 L 386,127 L 385,128 L 385,129 L 384,130 L 384,131 L 383,132 L 383,134 L 382,135 L 382,139 L 381,140 L 381,157 L 382,158 L 382,162 L 383,163 L 383,165 L 384,166 L 384,168 L 385,169 L 385,170 L 386,171 L 386,172 L 387,173 L 387,174 L 394,181 L 395,181 L 397,183 L 399,183 L 400,184 L 401,184 L 402,185 L 405,185 L 406,186 L 427,186 L 428,185 L 431,185 L 432,184 L 434,184 L 434,176 L 433,176 L 432,177 L 428,177 L 427,178 L 422,178 L 421,179 L 412,179 L 411,178 L 408,178 L 407,177 L 405,177 L 404,176 L 403,176 L 401,174 L 400,174 L 396,170 L 396,169 L 394,167 L 394,166 L 393,165 L 393,163 L 392,162 L 392,160 L 391,159 L 391,155 L 390,154 L 390,143 L 391,142 L 391,138 L 392,137 L 392,135 L 393,134 L 393,133 L 394,132 L 394,131 L 395,130 L 395,129 L 403,121 L 404,121 L 405,120 L 407,120 L 408,119 L 410,119 L 411,118 L 422,118 L 423,119 L 426,119 L 427,120 L 429,120 L 430,121 L 432,121 L 433,122 L 434,121 L 434,120 L 435,119 L 435,118 L 436,117 L 436,116 L 437,115 L 437,114 L 436,114 L 435,113 L 433,113 L 432,112 L 429,112 L 428,111 L 423,111 L 422,110 Z" fill="white" /><path d="M 956,55 L 955,56 L 953,56 L 951,58 L 950,58 L 949,59 L 949,60 L 947,62 L 947,63 L 946,64 L 946,65 L 945,66 L 945,74 L 946,75 L 946,77 L 948,79 L 948,80 L 1014,146 L 1014,147 L 949,212 L 949,213 L 947,215 L 947,216 L 946,217 L 946,218 L 945,219 L 945,227 L 946,228 L 946,230 L 947,231 L 947,232 L 951,236 L 952,236 L 953,237 L 954,237 L 955,238 L 965,238 L 966,237 L 967,237 L 968,236 L 969,236 L 1050,155 L 1050,154 L 1051,153 L 1051,151 L 1052,150 L 1052,144 L 1051,143 L 1051,140 L 1049,138 L 1049,137 L 969,57 L 968,57 L 967,56 L 965,56 L 964,55 Z" fill="white" /><path d="M 115,55 L 114,56 L 112,56 L 111,57 L 110,57 L 30,137 L 30,138 L 28,140 L 28,142 L 27,143 L 27,150 L 28,151 L 28,153 L 29,154 L 29,155 L 110,236 L 111,236 L 112,237 L 113,237 L 114,238 L 124,238 L 125,237 L 126,237 L 127,236 L 128,236 L 132,232 L 132,231 L 133,230 L 133,228 L 134,227 L 134,219 L 133,218 L 133,216 L 131,214 L 131,213 L 65,147 L 65,146 L 132,79 L 132,78 L 133,77 L 133,75 L 134,74 L 134,66 L 133,65 L 133,63 L 131,61 L 131,60 L 129,58 L 128,58 L 126,56 L 124,56 L 123,55 Z" fill="white" /><path d="M 880,9 L 879,10 L 877,10 L 876,11 L 875,11 L 870,16 L 870,17 L 869,18 L 869,20 L 868,21 L 868,23 L 867,24 L 867,25 L 866,26 L 866,28 L 865,29 L 865,31 L 864,32 L 864,33 L 863,34 L 863,36 L 862,37 L 862,39 L 861,40 L 861,41 L 860,42 L 860,44 L 859,45 L 859,47 L 858,48 L 858,49 L 857,50 L 857,52 L 856,53 L 856,55 L 855,56 L 855,57 L 854,58 L 854,60 L 853,61 L 853,63 L 852,64 L 852,65 L 851,66 L 851,68 L 850,69 L 850,71 L 849,72 L 849,73 L 848,74 L 848,76 L 847,77 L 847,79 L 846,80 L 846,81 L 845,82 L 845,84 L 844,85 L 844,87 L 843,88 L 843,89 L 842,90 L 842,92 L 841,93 L 841,95 L 840,96 L 840,97 L 839,98 L 839,100 L 838,101 L 838,103 L 837,104 L 837,105 L 836,106 L 836,108 L 835,109 L 835,111 L 834,112 L 834,113 L 833,114 L 833,116 L 832,117 L 832,119 L 831,120 L 831,121 L 830,122 L 830,124 L 829,125 L 829,126 L 828,127 L 828,129 L 827,130 L 827,132 L 826,133 L 826,134 L 825,135 L 825,137 L 824,138 L 824,140 L 823,141 L 823,142 L 822,143 L 822,145 L 821,146 L 821,148 L 820,149 L 820,150 L 819,151 L 819,153 L 818,154 L 818,156 L 817,157 L 817,158 L 816,159 L 816,161 L 815,162 L 815,164 L 814,165 L 814,166 L 813,167 L 813,169 L 812,170 L 812,172 L 811,173 L 811,174 L 810,175 L 810,177 L 809,178 L 809,180 L 808,181 L 808,182 L 807,183 L 807,185 L 806,186 L 806,188 L 805,189 L 805,190 L 804,191 L 804,193 L 803,194 L 803,196 L 802,197 L 802,198 L 801,199 L 801,201 L 800,202 L 800,204 L 799,205 L 799,206 L 798,207 L 798,209 L 797,210 L 797,212 L 796,213 L 796,214 L 795,215 L 795,217 L 794,218 L 794,220 L 793,221 L 793,222 L 792,223 L 792,225 L 791,226 L 791,228 L 790,229 L 790,230 L 789,231 L 789,233 L 788,234 L 788,236 L 787,237 L 787,238 L 786,239 L 786,241 L 785,242 L 785,244 L 784,245 L 784,246 L 783,247 L 783,249 L 782,250 L 782,252 L 781,253 L 781,254 L 780,255 L 780,257 L 779,258 L 779,260 L 778,261 L 778,262 L 777,263 L 777,266 L 776,267 L 776,271 L 777,272 L 777,275 L 778,276 L 778,277 L 783,282 L 784,282 L 785,283 L 786,283 L 787,284 L 796,284 L 797,283 L 799,283 L 802,280 L 803,280 L 804,279 L 804,278 L 805,277 L 805,276 L 806,275 L 806,274 L 807,273 L 807,271 L 808,270 L 808,268 L 809,267 L 809,266 L 810,265 L 810,263 L 811,262 L 811,260 L 812,259 L 812,258 L 813,257 L 813,255 L 814,254 L 814,252 L 815,251 L 815,250 L 816,249 L 816,247 L 817,246 L 817,244 L 818,243 L 818,242 L 819,241 L 819,239 L 820,238 L 820,236 L 821,235 L 821,234 L 822,233 L 822,231 L 823,230 L 823,228 L 824,227 L 824,226 L 825,225 L 825,223 L 826,222 L 826,220 L 827,219 L 827,218 L 828,217 L 828,215 L 829,214 L 829,212 L 830,211 L 830,210 L 831,209 L 831,207 L 832,206 L 832,204 L 833,203 L 833,202 L 834,201 L 834,199 L 835,198 L 835,196 L 836,195 L 836,194 L 837,193 L 837,191 L 838,190 L 838,188 L 839,187 L 839,186 L 840,185 L 840,183 L 841,182 L 841,180 L 842,179 L 842,178 L 843,177 L 843,175 L 844,174 L 844,172 L 845,171 L 845,170 L 846,169 L 846,167 L 847,166 L 847,164 L 848,163 L 848,162 L 849,161 L 849,159 L 850,158 L 850,156 L 851,155 L 851,154 L 852,153 L 852,151 L 853,150 L 853,148 L 854,147 L 854,146 L 855,145 L 855,143 L 856,142 L 856,140 L 857,139 L 857,138 L 858,137 L 858,135 L 859,134 L 859,132 L 860,131 L 860,130 L 861,129 L 861,127 L 862,126 L 862,124 L 863,123 L 863,122 L 864,121 L 864,119 L 865,118 L 865,116 L 866,115 L 866,114 L 867,113 L 867,111 L 868,110 L 868,108 L 869,107 L 869,106 L 870,105 L 870,103 L 871,102 L 871,100 L 872,99 L 872,98 L 873,97 L 873,95 L 874,94 L 874,92 L 875,91 L 875,90 L 876,89 L 876,87 L 877,86 L 877,84 L 878,83 L 878,82 L 879,81 L 879,79 L 880,78 L 880,76 L 881,75 L 881,74 L 882,73 L 882,71 L 883,70 L 883,68 L 884,67 L 884,66 L 885,65 L 885,63 L 886,62 L 886,60 L 887,59 L 887,58 L 888,57 L 888,55 L 889,54 L 889,52 L 890,51 L 890,50 L 891,49 L 891,47 L 892,46 L 892,44 L 893,43 L 893,42 L 894,41 L 894,39 L 895,38 L 895,36 L 896,35 L 896,34 L 897,33 L 897,31 L 898,30 L 898,27 L 899,26 L 899,22 L 898,21 L 898,19 L 897,18 L 897,17 L 896,16 L 896,15 L 892,11 L 891,11 L 890,10 L 888,10 L 887,9 Z" fill="white" /></svg>